<?xml version="1.0" encoding="iso-8859-1"?>
<!-- Uploaded to: SVG Repo, www.svgrepo.com, Generator: SVG Repo Mixer Tools -->
<svg fill="#343a40" height="20px" width="20px" version="1.1" id="Capa_1" xmlns="http://www.w3.org/2000/svg" xmlns:xlink="http://www.w3.org/1999/xlink" 
	 viewBox="0 0 60 60" xml:space="preserve">
<g>
	<g>
		<path d="M28,36.5h-4v-14c0-3.9-3.1-7-7-7H7c-3.9,0-7,3.1-7,7v14h2v-14c0-2.8,2.2-5,5-5h1.3l2.7,7.1v8.9h2V25l0.1-0.1l2.8-7.4H17
			c2.8,0,5,2.2,5,5v14h-3v-13h-2v14v10v9h-4v-18h2v-2H9v2h2v18H7v-33H5v34c0,0.6,0.4,1,1,1h6h6c0.6,0,1-0.4,1-1v-9h9
			c0.6,0,1-0.4,1-1v-10C29,36.9,28.6,36.5,28,36.5z M12.1,21.7l-1.6-4.2h3.2L12.1,21.7z M27,38.5v4h-8v-4H27z M19,46.5v-2h8v2H19z"
			/>
		<path d="M11,14.5h2c2.8,0,5-2.2,5-5v-3c0-2.8-2.2-5-5-5h-2c-2.8,0-5,2.2-5,5v3C6,12.3,8.2,14.5,11,14.5z M8,6.5c0-1.7,1.3-3,3-3h2
			c1.7,0,3,1.3,3,3v3c0,1.7-1.3,3-3,3h-2c-1.7,0-3-1.3-3-3V6.5z"/>
		<path d="M59,36.5h-4v-14c0-3.9-3.1-7-7-7H38c-3.9,0-7,3.1-7,7v14h2v-14c0-2.8,2.2-5,5-5h1.3l2.7,7.1v8.9h2V25l0.1-0.1l2.8-7.4H48
			c2.8,0,5,2.2,5,5v14h-3v-13h-2v14v10v9h-4v-18h2v-2h-6v2h2v18h-4v-33h-2v34c0,0.6,0.4,1,1,1h6h6c0.6,0,1-0.4,1-1v-9h9
			c0.6,0,1-0.4,1-1v-10C60,36.9,59.6,36.5,59,36.5z M43.1,21.7l-1.6-4.2h3.2L43.1,21.7z M58,38.5v4h-8v-4H58z M50,46.5v-2h8v2H50z"
			/>
		<path d="M42,14.5h2c2.8,0,5-2.2,5-5v-3c0-2.8-2.2-5-5-5h-2c-2.8,0-5,2.2-5,5v3C37,12.3,39.2,14.5,42,14.5z M39,6.5
			c0-1.7,1.3-3,3-3h2c1.7,0,3,1.3,3,3v3c0,1.7-1.3,3-3,3h-2c-1.7,0-3-1.3-3-3V6.5z"/>
	</g>
</g>
</svg>