<svg width="66" height="80" viewBox="0 0 66 80" fill="none" xmlns="http://www.w3.org/2000/svg">
<path d="M63.7969 28.0734L60.347 24.4797V9.46422C60.347 7.37484 58.6472 5.67484 56.5577 5.67484H42.2933C42.2897 5.67109 42.2867 5.66687 42.2831 5.66313L39.5102 2.77469C37.7923 0.985469 35.4803 0 33 0C30.5197 0 28.2077 0.985469 26.49 2.77469L23.7056 5.675H9.44234C7.35281 5.675 5.65297 7.375 5.65297 9.46437V24.48L2.20313 28.0734C1.05203 29.2725 0.417969 30.8483 0.417969 32.5103V76.2106C0.417969 78.3002 2.11797 80 4.20734 80H61.7925C63.8819 80 65.5819 78.3002 65.5819 76.2106V32.5103C65.5819 30.8483 64.948 29.2725 63.7969 28.0734ZM62.1061 29.6967C62.8361 30.457 63.2381 31.4564 63.2381 32.5105V35.168L60.3469 38.1797V27.8641L62.1061 29.6967ZM28.1806 4.39781C29.4523 3.07328 31.1637 2.34375 33 2.34375C34.8363 2.34375 36.5477 3.07328 37.8194 4.39781L39.0453 5.67484H26.9547L28.1806 4.39781ZM9.44234 8.01859H56.5575C57.3547 8.01859 58.0031 8.66703 58.0031 9.46422V40.6209L45.5639 53.5784L39.5098 47.2722C37.7922 45.483 35.4802 44.4975 32.9998 44.4975C30.5195 44.4975 28.2075 45.483 26.4898 47.2722L20.4358 53.5784L7.99656 40.6209V9.46422C7.99672 8.66719 8.64531 8.01859 9.44234 8.01859ZM18.8116 55.2706L2.76188 71.9891V38.5522L18.8116 55.2706ZM2.76188 32.5103C2.76188 31.4562 3.16391 30.4569 3.89391 29.6966L5.65313 27.8641V38.1794L2.76188 35.1677V32.5103ZM61.7925 77.6562H4.2075C3.41031 77.6562 2.76188 77.0078 2.76188 76.2106V75.3733L28.1808 48.8953C29.4525 47.5706 31.1639 46.8412 33.0002 46.8412C34.8364 46.8412 36.5478 47.5708 37.8195 48.8953L47.2317 58.6997C47.68 59.1667 48.4217 59.1814 48.8886 58.7334C49.3553 58.2853 49.3706 57.5434 48.9223 57.0766L47.1886 55.2706L63.2383 38.5522V71.9891L52.6914 61.0028C52.2431 60.5359 51.5014 60.5209 51.0345 60.9691C50.5678 61.4172 50.5525 62.1591 51.0008 62.6259L63.2383 75.3733V76.2105C63.2381 77.0078 62.5897 77.6562 61.7925 77.6562Z" fill="#46A358"/>
</svg>
